<?xml version="1.0" encoding="UTF-8"?>
<svg xmlns="http://www.w3.org/2000/svg" version="1.1" viewBox="0 0 244 239">
  <defs>
    <style>
      .cls-1 {
        fill: none;
        stroke: #003141;
        stroke-linecap: round;
        stroke-miterlimit: 10;
        stroke-width: 7px;
      }

      .cls-2 {
        fill: #003141;
      }
    </style>
  </defs>
  <!-- Generator: Adobe Illustrator 28.6.0, SVG Export Plug-In . SVG Version: 1.2.0 Build 709)  -->
  <g>
    <g id="Capa_1">
      <path class="cls-2" d="M213.3,172.7c0,.2-.1.5-.2.8-.7,4.2-3.3,6.4-7.1,6.4-12.8,0-25.6-.2-38.4,0-4.8,0-7.5-3.3-7.5-7.5,0-7,0-14.1,0-21.1,0-.7,0-1.5,0-2.1-2.4-.9-4.7-1.6-7-2.5-4.3-1.7-6.1-5.4-6.2-9.7-.2-9-.1-18.1,0-27.2,0-5,3.4-9.7,8.9-10.9,4.4-1,4.4-1.1,4.4-5.6,0-6.1,0-12.2,0-18.3,0-5.6,2.5-8.1,8.1-8.1,12.2,0,24.4,0,36.6,0,5.7,0,7.6,1.6,8.7,7.4M213.4,97.3v52.3M173.4,97.2c4.4,0,8.6,0,12.8,0,6.1,0,12.2,0,18.3,0,1,0,2,0,2-1.3,0-2.1,0-4.3,0-6.6h-33.3v-14.8h-6.4v97.9h6.5v-14.8c5.4,0,10.6,0,15.7,0,5.2,0,10.5,0,15.7,0,.9,0,1.8.1,1.8-1.2,0-2.2,0-4.4,0-6.8h-33.2v-22.2c.9,0,1.7,0,2.5,0,9.5,0,19.1,0,28.6,0,.9,0,2,.2,2.1-1.2,0-2.2,0-4.4,0-6.8h-33.2v-22.2ZM213.3,81.9v7.3M213.3,157.8v7.3M160,105.6c-1.4.3-2.9.3-3.8,1-1.1.8-2.6,2.2-2.6,3.4-.2,9-.1,17.9,0,26.9,0,.8.6,1.9,1.2,2.3,1.5.9,3.3,1.5,5.2,2.2v-35.9ZM206.5,74.5h-26.3v7.2h26.3v-7.2ZM206.5,104.7h-26.4v7.2h26.4v-7.2ZM206.5,134.9h-26.4v7.3h26.4v-7.3ZM180.1,172.4h26.3v-7.2h-26.3v7.2Z"/>
      <path class="cls-1" d="M136.9,105.6s-23.6-1.3-59.4-17.9c-32.7-15.2-40.3-26.9-40.3-26.9"/>
      <path class="cls-1" d="M136.9,139s-23.6,1.3-59.4,17.9-40.3,26.9-40.3,26.9"/>
      <polygon class="cls-2" points="120.2 123.4 29 84.6 29 162.3 120.2 123.4"/>
    </g>
  </g>
</svg>